<svg xmlns="http://www.w3.org/2000/svg" width="1024" height="1024" viewBox="0 0 1024 1024" version="1.1">
	<path d="M 0 512.001 L 0 1024.002 512.250 1023.751 L 1024.500 1023.500 1024.751 511.750 L 1025.002 0 512.501 0 L 0 0 0 512.001 M 0.496 512.500 C 0.496 794.100, 0.610 909.151, 0.750 768.168 C 0.890 627.186, 0.890 396.786, 0.750 256.168 C 0.610 115.551, 0.496 230.900, 0.496 512.500 M 449.992 172.250 L 449.983 218.500 438.239 221.641 C 381.226 236.889, 333.664 272.639, 314.308 314.794 C 305.586 333.789, 302.887 345.958, 302.244 369.178 C 301.518 395.448, 305.160 414.122, 314.985 434.500 C 336.990 480.139, 382.581 513.497, 455 536.947 C 469.394 541.608, 473.326 542.712, 507 551.560 C 547.122 562.102, 574.614 574.006, 595.926 590.065 C 618.857 607.344, 631 629.628, 631 654.430 C 631 670.426, 625.976 683.768, 615.058 696.768 C 600.045 714.644, 579.675 724.558, 548.500 729.163 C 534.568 731.221, 492.243 730.929, 479 728.683 C 437.718 721.681, 413.492 706.976, 399.279 680.291 C 395.055 672.360, 389.011 653.627, 388.986 648.388 C 388.979 646.800, 388.701 644.487, 388.370 643.250 L 387.767 641 340.740 641 L 293.712 641 294.394 649.250 C 296.481 674.494, 305.860 702.228, 319.293 722.879 C 336.786 749.771, 366.397 774.030, 400.259 789.211 C 412.463 794.682, 429.974 800.660, 442.250 803.545 L 450 805.366 450 851.683 L 450 898 514.500 898 L 579 898 579 851.628 L 579 805.256 583.250 804.591 C 590.871 803.399, 610.267 798.196, 621 794.465 C 664.275 779.421, 699.750 750.548, 715.566 717.500 C 727.034 693.536, 731.430 667.780, 729.062 638.433 C 726.952 612.281, 722.710 596.370, 712.613 576.725 C 698.966 550.177, 677.305 529.954, 639.500 508.466 C 609.724 491.541, 583.427 481.310, 532.841 466.969 C 493.800 455.900, 474.325 448.873, 454.514 438.706 C 426.382 424.269, 409.181 407.786, 402.843 389.190 C 399.961 380.735, 399.768 364.961, 402.425 355 C 409.196 329.608, 432.384 308.835, 464.270 299.595 C 481.452 294.615, 489.802 293.614, 514.500 293.571 C 538.877 293.528, 549.931 294.953, 565.478 300.143 C 598.316 311.105, 617.863 336.099, 622.208 372.683 L 623.434 383 670.751 383 L 718.069 383 717.484 377.750 C 714.924 354.782, 713.921 349.436, 709.460 335 C 698.545 299.670, 675.161 268.676, 643.094 247.036 C 630.887 238.799, 606.081 228.035, 587.250 222.806 L 579 220.514 579 173.257 L 579 126 514.500 126 L 450 126 449.992 172.250" stroke="none" fill="black" fill-rule="evenodd"/>
</svg>